<svg width="93" height="93" viewBox="0 0 93 93" fill="none" xmlns="http://www.w3.org/2000/svg">
<path d="M61.7174 30.8585C60.6522 29.7933 58.9252 29.7933 57.8601 30.8585L46.2881 42.4305L34.7161 30.8585C33.6509 29.7933 31.924 29.7933 30.8588 30.8585C29.7936 31.9237 29.7936 33.6507 30.8588 34.7158L42.4308 46.2878L30.8588 57.8598C29.7936 58.925 29.7936 60.6519 30.8588 61.7171C31.924 62.7823 33.6509 62.7823 34.7161 61.7171L46.2881 50.1452L57.8601 61.7171C58.9253 62.7823 60.6522 62.7823 61.7174 61.7171C62.7826 60.6519 62.7826 58.925 61.7174 57.8598L50.1454 46.2878L61.7174 34.7158C62.7826 33.6507 62.7826 31.9237 61.7174 30.8585Z" fill="black"/>
</svg>
